<svg xmlns="http://www.w3.org/2000/svg" viewBox="0 0 169 18.96">
    <path d="M821,108.33" transform="translate(0 -1.02)" fill="none" stroke="#e88a7a" stroke-miterlimit="10"/>
    <line y1="9.48" x2="169" y2="9.48" fill="#d93b20"/>
    <path d="M96.26,2c-.2-.25,8-.48,8.74-.48,2.55,0,7.84-1.14,8.74,0-.14-.17-7.13.48-8.74.48S97.16,3.14,96.26,2Z"
          transform="translate(0 -1.02)" fill-rule="evenodd"/>
    <path d="M72.33,3C78,2.44,85.42,2,90.57,2c.55,0,7.44.12,3.8.48C86.51,3.25,80.34,2.6,72.33,3Z"
          transform="translate(0 -1.02)" fill-rule="evenodd"/>
    <path d="M117.92,2.48c-.2-.25,1.27-.8,1.52-.48S118.17,2.8,117.92,2.48Z" transform="translate(0 -1.02)"
          fill-rule="evenodd"/>
    <path d="M54.48,4.88c-12.32.72-26.36.21-39.13,1C13,6,10.2,5.78,8.13,6.32c-1.08.28,1.18,1.41,1.14,1.44-1.39,1.07-4.17-.81-5.7.48.54-.46,2.56,1,2.28,1.44s-5.3.19-5.7.48c.47-.35,1.43.18,1.52.48.2.68-1.16,1.94-.76,1.44-4.15,5.15,7.1,7,8.74,7.2,15.08,1.45,37.35.32,51.28-.48,26.87-1.54,54.36-2.44,80.15-1,7.13.41,14.72,1.15,21.65.48,2.11-.21,8.68-1.44,5.32-1.44-2.23,0-.22-.67,0-1.44.71-2.44-.58-2.22-1.52-2.4-2.53-.49.08-1.81.76-1a5.26,5.26,0,0,0-3.8-2.4c-3.24-.61-6.56,1.16-8.36-.48,1.29,1.18,4.24-1.6,2.66-1-.28.12-.81-.47-.76-.48,1.86-.53,4,.07,5.32,0,5.87-.32.06-.82-1.9-1-8.35-.59-16.87-.91-24.69-1,1.9,0-5.8-.35-5.7-.48.56-.71,10.71-.33,13.3,0s8.14.65,11,1c2.41.26,14.4-.63,8-1-1.25-.06-6.58-.9-7.6-1-18-1-38.58-2.48-55.84-1.44C84.86,3.81,69.64,4,54.48,4.88ZM121,5.36c-.49-.62,4.57-.19,1.14,0C121.95,5.37,121.05,5.48,121,5.36Zm3.42,0c-.19-.24.95-.73,1.14-.48S124.57,5.61,124.37,5.36Z"
          transform="translate(0 -1.02)" fill-rule="evenodd"/>
    <path d="M72.33,3c-2,.1-5.52,1.67-6.46.48C66.23,3.9,71.44,2.07,72.33,3Z" transform="translate(0 -1.02)"
          fill-rule="evenodd"/>
    <path d="M58.66,3.92c2,0,5.82-1.77,6.84-.48C64.86,2.64,59.57,5.08,58.66,3.92Z" transform="translate(0 -1.02)"
          fill-rule="evenodd"/>
    <path d="M58.66,3.92c-1.22,0-9,1.62-9.88.48.33.42,3.72-.47,4.56-.48C55.35,3.9,57.06,3.94,58.66,3.92Z"
          transform="translate(0 -1.02)" fill-rule="evenodd"/>
</svg>